<svg xmlns="http://www.w3.org/2000/svg" viewBox="0 0 10 10"><circle fill="#fff" cx="5" cy="5" r="5"/><path fill="#e81123" d="M10,5a4.81,4.81,0,0,1-.18,1.32A5,5,0,0,1,6.32,9.81a4.94,4.94,0,0,1-2.64,0,5,5,0,0,1-2.2-1.29,5,5,0,0,1-.78-1A5.06,5.06,0,0,1,.19,6.33a4.95,4.95,0,0,1,0-2.64A5,5,0,0,1,3.68.2,4.95,4.95,0,0,1,6.32.2a5,5,0,0,1,2.2,1.29,5,5,0,0,1,1.29,2.2A4.8,4.8,0,0,1,10,5ZM7,2A3.77,3.77,0,0,0,6,1.6a3.47,3.47,0,0,0-1-.15,3.38,3.38,0,0,0-.94.13,3.6,3.6,0,0,0-.85.36A3.62,3.62,0,0,0,1.57,4.07,3.4,3.4,0,0,0,1.44,5a3.48,3.48,0,0,0,.15,1A3.76,3.76,0,0,0,2,7Zm1.6,3a3.46,3.46,0,0,0-.15-1A3.72,3.72,0,0,0,8,3L3,8A3.78,3.78,0,0,0,4,8.42a3.46,3.46,0,0,0,1,.15,3.39,3.39,0,0,0,.94-.13,3.62,3.62,0,0,0,2.5-2.5A3.38,3.38,0,0,0,8.57,5Z"/></svg>
