<svg width="182" height="108" fill="none" xmlns="http://www.w3.org/2000/svg"><g clip-path="url(#a)"><path d="M57.423 100.315c16.386 0 29.67-13.266 29.67-29.631 0-16.365-13.284-29.632-29.67-29.632-16.387 0-29.67 13.267-29.67 29.632 0 16.365 13.283 29.631 29.67 29.631Z" fill="#fff"/><path opacity=".5" d="M57.423 100.315c16.386 0 29.67-13.266 29.67-29.631 0-16.365-13.284-29.632-29.67-29.632-16.387 0-29.67 13.267-29.67 29.632 0 16.365 13.283 29.631 29.67 29.631Z" fill="#C8C6C4"/><path d="M57.423 100.315c11.703 0 21.82-6.77 26.65-16.6a40.037 40.037 0 0 0-14.097-4.37c-1.903.126-3.016.888-3.509 2.123-3.037-.669-5.947-.968-8.605-.918a47.844 47.844 0 0 0-16.558 3.286l-.162-2.382s-4.398.714-9.692 3.556c5.057 9.125 14.79 15.305 25.973 15.305Z" fill="#8B8CC4"/><path d="M55.955 58.144c.502-.077.799-.864.662-1.758s-.656-1.557-1.159-1.48c-.502.077-.8.864-.662 1.758.137.894.656 1.557 1.159 1.48ZM65.562 56.678c.503-.077.8-.865.662-1.759-.137-.894-.656-1.557-1.158-1.48-.503.077-.8.864-.663 1.759.137.894.656 1.556 1.159 1.48Z" fill="#33312D"/><path d="M70.204 71.65c-.049.002-.1.006-.148.006l.003-.006h.145Z" fill="#BBB0D6"/><path d="M41.728 58.953s2.954 17.787-.338 23.461c10.111 9.144 23.91 5.852 23.87 1.224 0 0 4.715-16.157-2.228-24.49-4.009-4.813-21.304-.195-21.304-.195Z" fill="#E0BB95"/><path d="m47.992 44.623 10.521-1.609c4.562-.697 8.74 1.632 9.283 5.175l2.569 16.76c.543 3.544-2.745 7.014-7.308 7.711l-10.52 1.609c-4.563.697-8.74-1.632-9.283-5.175l-2.57-16.76c-.543-3.544 2.746-7.014 7.308-7.711Z" fill="#E0BB95"/><path d="m69.602 60.485-.008.002c0-.033-.002-.062-.003-.095l.011.093Z" fill="#9C96AE"/><path d="M54.898 59.04a10.124 10.124 0 0 1 7.457-5.325 10.111 10.111 0 0 1 6.466 1.16 10.203 10.203 0 0 1 3.463 3.16 10.11 10.11 0 0 1 1.634 4.163c.847 5.532-2.954 10.7-8.493 11.547-1.878.287-3.716.041-5.358-.629a10.123 10.123 0 0 1-6.206-7.852 10.07 10.07 0 0 1 1.037-6.224ZM41.704 64.465c2.262-.285 3.842-2.517 3.53-4.985-.312-2.467-2.398-4.236-4.66-3.951-2.261.285-3.841 2.517-3.53 4.984.313 2.468 2.399 4.237 4.66 3.952Z" fill="#E0BB95"/><path d="M61.312 61.388a.128.128 0 0 1 .128.208c-.311.36-.72.637-1.18.813-.46.181-.98.25-1.49.18-1.034-.128-1.93-.882-2.224-1.787a.129.129 0 0 1 .197-.145l.002.002c.373.264.715.496 1.069.67.355.167.712.285 1.086.336a4.34 4.34 0 0 0 1.157-.007c.4-.055.808-.159 1.252-.27h.003Z" fill="#767677"/><path d="m39.66 53.562.322 2.106c1.465.31 1.766 3.602 1.766 3.602l.765 5.293c.985 6.81 8.09 11.413 14.91 10.43l7.82-1.22c5.792-.836 9.468-5.923 8.694-11.443a10.113 10.113 0 0 0-1.653-4.295l-19.974 3.04a4.07 4.07 0 0 1-4.636-3.404s-1.814-3.291-.033-5.716c1.782-2.425 1.312-4.116.85-5.225l9.414-1.36 3.175-.474 3.66-.491.58-.078s1.746-1.276 1.151-4.043a8.56 8.56 0 0 0-1.405-3.165c-.557-.743-1.027-1.147-1.027-1.147s-.17.672-.86 1.436c-.6.67-1.61 1.414-3.25 1.835-.316.082-9.616 1.451-10.926 1.64-1.31.189-3.336.907-4.132 1.414a11.235 11.235 0 0 0-5.31 10.475c.029.267.057.524.099.79Z" fill="#BF8F68"/><path d="M59.002 66.812a4.723 4.723 0 0 1-4.55-4.878.68.68 0 0 1 .681-.657l8.096.285a.682.682 0 0 1 .658.705 4.7 4.7 0 0 1-4.716 4.548l-.169-.003Z" fill="#943838"/><path d="m55.133 61.958 8.072.285a4.038 4.038 0 0 1-4.179 3.888 4.037 4.037 0 0 1-3.893-4.173Zm0-1.362a1.365 1.365 0 0 0-1.364 1.314 5.405 5.405 0 0 0 5.402 5.586 5.379 5.379 0 0 0 5.397-5.205 1.361 1.361 0 0 0-1.315-1.41l-8.072-.285h-.048Z" fill="#BF8F68"/><path d="M55.133 61.958c-.008.222 0 .434.028.647 1.154.39 2.486.639 3.915.689 1.47.052 2.857-.111 4.062-.438.037-.2.06-.407.067-.613l-8.072-.285Z" fill="#F3F2F1"/><path d="M54.115 40.661c2.93.505 3.159 4.8 3.159 4.8L48.49 46.73c-1.376-2.868-5.175-3.278-5.175-3.278s2.944-3.37 10.799-2.79Z" fill="url(#b)"/><path d="m59.128 46.439 3.997 25.35 8.069-1.38-3.996-25.35-8.07 1.38Z" fill="url(#c)"/><path d="M63.83 55.45c.066-.734.642-1.413 1.504-1.587.394-.044.845-.01 1.21.232.364.241.592.58.643.993a.26.26 0 0 1-.403.249l-.078-.053c-.45-.303-.767-.38-1.177-.28-.367.022-.733.327-1.193.666l-.05.037a.287.287 0 0 1-.456-.257ZM53.296 56.734c.065-.735.642-1.414 1.504-1.588.394-.044.844-.009 1.21.232.363.242.592.581.643.994a.26.26 0 0 1-.404.248l-.078-.053c-.45-.302-.767-.379-1.177-.28-.367.023-.733.327-1.193.666l-.05.037a.287.287 0 0 1-.455-.256Z" fill="#231F20"/><path d="M62.393 58.79a5.398 5.398 0 0 1-2.158-3.557 5.394 5.394 0 0 1 .994-4.04 5.407 5.407 0 0 1 3.562-2.154 5.388 5.388 0 0 1 4.045.992 5.398 5.398 0 0 1 2.158 3.558 5.391 5.391 0 0 1-.994 4.04 5.407 5.407 0 0 1-3.563 2.154l-.047.007a5.41 5.41 0 0 1-3.997-1Zm2.596-8.463a4.137 4.137 0 0 0-3.464 4.71 4.105 4.105 0 0 0 1.64 2.704 4.16 4.16 0 0 0 3.076.754 4.112 4.112 0 0 0 2.709-1.638 4.1 4.1 0 0 0 .754-3.071 4.105 4.105 0 0 0-1.64-2.706 4.113 4.113 0 0 0-3.04-.76l-.035.007Z" fill="#E3646A"/><path d="M57.93 57.536c-.222-1.45-.062-3.85 1.39-4.071 0 0 .079.546.846 1.031.443.28 2.534.423 3.043 2.233.478 1.697-1.051 2.57-1.333 2.728a2.647 2.647 0 0 1-.902.311 2.678 2.678 0 0 1-3.044-2.232Z" fill="#E0BB95"/><path d="m41.644 58.597 7.68-1.174a5.395 5.395 0 0 0 2.054 3.044 5.408 5.408 0 0 0 3.996 1l.048-.007a5.442 5.442 0 0 0 4.557-6.195c-.453-2.946-3.21-4.982-6.158-4.556l-.046.006a5.405 5.405 0 0 0-3.562 2.155 5.39 5.39 0 0 0-1.05 3.26l-7.716 1.179.197 1.288Zm8.865-1.885a4.1 4.1 0 0 1 .755-3.07 4.108 4.108 0 0 1 2.708-1.639l.035-.005a4.142 4.142 0 0 1 4.681 3.464 4.137 4.137 0 0 1-3.463 4.71 4.041 4.041 0 0 1-3.075-.754 4.108 4.108 0 0 1-1.64-2.706Z" fill="#E3646A"/><path d="M40.908 91.003v-13.85c0-.782.605-1.416 1.353-1.416h15.654c.283 0 .562.077.808.223l1.696 1.28 1.4-1.226a1.59 1.59 0 0 1 .893-.277h8.268c.748 0 1.353.634 1.353 1.416v13.85H40.908Z" fill="#8B8CC4"/><path d="m54.638 84.24 5.715-2.491 5.714 2.49v-6.484l-5.714 2.491-5.715-2.49v6.484Z" fill="#EE8F94"/><path d="M119.762 100.315c15.429 0 27.936-12.491 27.936-27.9 0-15.408-12.507-27.899-27.936-27.899s-27.936 12.491-27.936 27.9c0 15.408 12.507 27.899 27.936 27.899Z" fill="#E1DFDD"/><path d="M119.762 100.315c8.621 0 16.328-3.902 21.452-10.032-4.386-4.145-7.671-6.075-8.024-6.277a17.655 17.655 0 0 1-.036-.031l.004.013c-3.164-1.662-6.113-2.868-9.721-2.915-3.389-.045-6.43.853-9.069 2.698l-.005-.004s-5.483 2.948-11.005 11.226a27.828 27.828 0 0 0 16.404 5.322Z" fill="#EE8F94"/><path d="M129.652 53.377c4.095 0 7.414-3.315 7.414-7.405s-3.319-7.405-7.414-7.405-7.415 3.316-7.415 7.405c0 4.09 3.32 7.405 7.415 7.405Z" fill="url(#d)"/><path d="M134.355 46.908c5.222 0 9.456-4.228 9.456-9.443s-4.234-9.443-9.456-9.443c-5.222 0-9.456 4.228-9.456 9.443s4.234 9.443 9.456 9.443Z" fill="url(#e)"/><path d="M140.731 60.374c5.281 0 9.562-4.276 9.562-9.55 0-5.275-4.281-9.55-9.562-9.55s-9.563 4.275-9.563 9.55c0 5.274 4.282 9.55 9.563 9.55Z" fill="url(#f)"/><path d="M143.962 49.21c4.733 0 8.57-3.832 8.57-8.559 0-4.727-3.837-8.559-8.57-8.559-4.734 0-8.571 3.832-8.571 8.56 0 4.726 3.837 8.559 8.571 8.559Z" fill="url(#g)"/><path d="M105.227 58.55c-.752-13.395 9.028-18.125 18.188-15.909 7.067 1.71 11.637 6.528 11.184 13.479-.457 7.017-8.384 14.565-16.386 13.577l-1.066-.131c-7.805-.964-11.54-4.237-11.92-11.015Z" fill="#33312D"/><path d="M127.709 77.973c-1.808-4.26-1.62-10.447-1.62-10.447l-9.32.775s1.664 4.829 2.288 8.589c.765 4.609-1.827 4.775-4.694 6.877 1.843 2.082 4.075 4.272 7.978 4.514 6.92-.013 10.813-4.306 10.813-4.306s-3.76-1.795-5.445-6.002Z" fill="url(#h)"/><path d="M104.681 64.632c.24-1.842.645-7.4.645-7.4 1.065-6.097 5.233-10.555 10.439-9.201-.615 11.223 11.34 6.87 11.71 15.1l1.233 2.746c-.906 7.28-8.666 11.917-14.921 11.382-4.389-.376-9.946-6.2-9.106-12.627Z" fill="#9B643D"/><path d="m115.197 53.822-2.941 19.602-7.501-5.687 1.224-12.918 9.218-.997Z" fill="url(#i)"/><path d="M127.142 68.87s1.755.07 2.766-.24c2.21-.681 3.334-3.018 2.64-4.852-.695-1.835-3.184-2.785-5.637-1.878l.231 6.97ZM114.293 59.963s-.661 1.475-1.596 1.953c-.822.42-1.629.594-2.166 1.418-.77 1.182.028 2.972 1.285 3.408 1.209.42 1.266 1.696 1.266 1.696s2.536-3.132 2.823-3.975c.755-2.216-1.612-4.5-1.612-4.5Z" fill="#9B643D"/><path d="M117.335 68.861c.426-.041.801.321.744.745a3.566 3.566 0 0 1-3.181 3.064 3.574 3.574 0 0 1-3.731-2.39c-.138-.403.16-.832.586-.873l5.582-.546Z" fill="#752A2A"/><path d="m111.756 69.406 5.577-.543c.217-.014.424.06.547.208-.654.503-1.605.911-2.692 1.1-1.607.279-3.077.012-3.819-.613a.783.783 0 0 1 .387-.152Z" fill="#fff"/><path d="M119.705 61.589c.104-1.105-.266-2.044-.827-2.096-.56-.053-1.098.8-1.202 1.906-.104 1.105.266 2.043.826 2.096.561.052 1.099-.801 1.203-1.906ZM110.278 60.482c.104-1.105-.266-2.043-.826-2.096-.561-.052-1.099.801-1.203 1.906-.104 1.105.266 2.043.827 2.096.56.052 1.098-.8 1.202-1.906Z" fill="#231F20"/><path opacity=".3" d="m72.205 35.17 3.836 21.073 30.034-5.401-3.836-21.074-30.034 5.401Z" fill="#EDEBE9"/><path opacity=".11" d="m73.041 35.557 3.647 20.032 28.55-5.134-3.647-20.033-28.55 5.135Z" fill="#33312D"/><path d="m100.805 30.613-27.058 4.874 3.43 18.997 27.058-4.874-3.43-18.997Z" fill="#FCFCFB"/><path opacity=".5" d="m100.805 30.613-27.058 4.874 3.43 18.997 27.058-4.874-3.43-18.997Z" fill="#EE8F94"/><path d="m99.959 49.837-11.906-7.746a.61.61 0 0 0-.861.233l-5.327 11.002 18.094-3.489Z" fill="#EE8F94"/><path d="m104.258 49.598-.728-3.89-8.822-7.126c-.218-.195-.576-.124-.718.142l-6.397 13.839 16.665-2.965Z" fill="#EE8F94"/><path d="M82.827 43.594a2.893 2.893 0 0 0 2.895-2.89 2.893 2.893 0 0 0-2.895-2.892 2.893 2.893 0 0 0-2.895 2.891 2.893 2.893 0 0 0 2.895 2.891Z" fill="#fff"/><path d="m99.252 32.926 2.731 15.105-23.174 4.194-2.73-15.106 23.173-4.193Zm-25.487 2.56 3.457 18.995 27.072-4.868-3.458-18.996-27.071 4.87Z" fill="#fff"/><path d="M56.533 21.245c0 3.558 1.161 7.223 3.714 10.325 1.884 2.289.562 6.592.562 6.592s3.038-3.855 4.805-3.701c2.863.248 5.025 1.003 7.895.998 11.028-.018 18.737-5.472 18.737-13.259 0-4.84-2.258-15.622-21.695-14.692-9.207.44-14.018 6.773-14.018 13.737Z" fill="#E2E2F6"/><path opacity=".5" d="M56.533 21.245c0 3.558 1.161 7.223 3.714 10.325 1.884 2.289.562 6.592.562 6.592s3.038-3.855 4.805-3.701c2.863.248 5.025 1.003 7.895.998 11.028-.018 18.737-5.472 18.737-13.259 0-4.84-2.258-15.622-21.695-14.692-9.207.44-14.018 6.773-14.018 13.737Z" fill="#BDBDE6"/><path d="M79.058 16.538H65.706v3.45h13.352v-3.45ZM81.625 24.023h-15.92v3.45h15.92v-3.45Z" fill="#8B8CC7"/><path opacity=".07" d="m114.735 40.452-.849-3.846a.438.438 0 0 0-.417-.34.41.41 0 0 0-.147.027c-2.728 1.046-5.804 1.598-8.895 1.598-10.749 0-19.493-6.54-19.493-14.578 0-8.043 8.744-14.586 19.493-14.586 10.744 0 19.486 6.543 19.486 14.586 0 3.312-1.436 6.43-4.153 9.016a3.942 3.942 0 0 0-1.085 1.76l-1.847 6.428-2.093-.065Z" fill="#33312D"/><path opacity=".11" d="m115.22 39.15-.749-3.391a1.035 1.035 0 0 0-1.002-.81c-.123 0-.244.023-.362.068-2.66 1.019-5.662 1.558-8.68 1.558-10.419 0-18.894-6.272-18.894-13.98 0-7.713 8.475-13.988 18.894-13.988 10.414 0 18.886 6.275 18.886 13.988 0 3.144-1.371 6.112-3.967 8.582a4.538 4.538 0 0 0-1.247 2.028l-1.718 5.982-.643-.02-.518-.017Z" fill="#33312D"/><path d="M122.714 22.236c0 3.068-1.409 5.891-3.781 8.149a5.131 5.131 0 0 0-1.41 2.296l-1.718 5.982-.749-3.392a1.625 1.625 0 0 0-2.163-1.172c-2.533.97-5.413 1.518-8.466 1.518-10.106 0-18.295-5.992-18.295-13.381 0-7.397 8.189-13.39 18.295-13.39 10.098 0 18.287 5.993 18.287 13.39Z" fill="#FCFCFB"/><path d="M109.234 16.538H96.661v3.45h12.573v-3.45ZM112.581 24.023h-15.92v3.45h15.92v-3.45Z" fill="#C8C6C4"/><path opacity=".3" d="M86.132 22.235c0 2.784 1.163 5.37 3.152 7.51 1.899-2.088 2.962-4.655 2.962-7.545 0-2.063-.415-5.204-2.391-8.059-2.335 2.248-3.723 5.052-3.723 8.094Z" fill="#C8C6C4"/><path d="M115.64 6.75a2 2 0 0 1 .791-.045c.263.038.509.123.736.253.228.134.424.306.589.517.165.21.28.446.348.706.069.263.084.523.046.781a2.911 2.911 0 0 1-.241.79 16.64 16.64 0 0 1-.78 1.511c-.283.49-.56.983-.834 1.48a7.41 7.41 0 0 0-.221.417c-.18.351-.333.624-.458.819-.084.13-.178.254-.279.371-.064.078-.125.14-.182.187a.51.51 0 0 1-.2.1.572.572 0 0 1-.236.01.658.658 0 0 1-.23-.082.577.577 0 0 1-.295-.374.638.638 0 0 1 .066-.489l2.55-4.562a.847.847 0 0 0 .091-.627.732.732 0 0 0-.133-.267.808.808 0 0 0-.227-.197.805.805 0 0 0-.869.055.638.638 0 0 0-.196.221l-2.972 5.285c-.113.202-.186.42-.219.653-.032.233-.02.459.037.678a1.657 1.657 0 0 0 .793 1.036 1.714 1.714 0 0 0 1.291.182 1.756 1.756 0 0 0 1.054-.79l2.16-3.625a.607.607 0 0 1 .383-.286.646.646 0 0 1 .475.069.626.626 0 0 1 .291.381.633.633 0 0 1-.068.479l-2.157 3.618c-.199.34-.456.627-.772.865a2.952 2.952 0 0 1-2.201.568 2.988 2.988 0 0 1-1.084-.38 2.974 2.974 0 0 1-.865-.758 2.854 2.854 0 0 1-.512-1.04 3.032 3.032 0 0 1 .299-2.268l2.982-5.303c.129-.233.303-.43.522-.592.218-.162.461-.277.727-.346Z" fill="#BDBDE6"/></g><defs><radialGradient id="b" cx="0" cy="0" r="1" gradientUnits="userSpaceOnUse" gradientTransform="matrix(-5.39159 0 0 -5.38453 46.355 48.55)"><stop stop-color="#9B643D"/><stop offset="1" stop-color="#BF8F68"/></radialGradient><radialGradient id="c" cx="0" cy="0" r="1" gradientUnits="userSpaceOnUse" gradientTransform="matrix(5.77805 -1.01126 .76174 4.3524 59.697 57.77)"><stop offset=".313" stop-color="#9B643D"/><stop offset=".919" stop-color="#BA8A63" stop-opacity=".118"/><stop offset="1" stop-color="#BF8F68" stop-opacity="0"/></radialGradient><radialGradient id="d" cx="0" cy="0" r="1" gradientUnits="userSpaceOnUse" gradientTransform="matrix(-17.0911 0 0 -17.0687 128.398 56.965)"><stop stop-color="#0C0A05"/><stop offset="1" stop-color="#33312D"/></radialGradient><radialGradient id="e" cx="0" cy="0" r="1" gradientUnits="userSpaceOnUse" gradientTransform="matrix(-17.0911 0 0 -17.0687 128.397 56.965)"><stop stop-color="#0C0A05"/><stop offset="1" stop-color="#33312D"/></radialGradient><radialGradient id="f" cx="0" cy="0" r="1" gradientUnits="userSpaceOnUse" gradientTransform="matrix(-17.0911 0 0 -17.0687 126.989 56.965)"><stop stop-color="#0C0A05"/><stop offset="1" stop-color="#33312D"/></radialGradient><radialGradient id="g" cx="0" cy="0" r="1" gradientUnits="userSpaceOnUse" gradientTransform="matrix(-17.0911 0 0 -17.0687 126.989 56.965)"><stop stop-color="#0C0A05"/><stop offset="1" stop-color="#33312D"/></radialGradient><radialGradient id="h" cx="0" cy="0" r="1" gradientUnits="userSpaceOnUse" gradientTransform="rotate(-176.387 58.252 32.709) scale(11.2961 11.8449)"><stop stop-color="#591C17"/><stop offset=".338" stop-color="#743926"/><stop offset=".762" stop-color="#905837"/><stop offset=".999" stop-color="#9B643D"/></radialGradient><radialGradient id="i" cx="0" cy="0" r="1" gradientUnits="userSpaceOnUse" gradientTransform="matrix(-7.46663 -1.1175 1.06135 -7.0915 113.755 64.719)"><stop stop-color="#591C17"/><stop offset="1" stop-color="#9B643D" stop-opacity="0"/></radialGradient><clipPath id="a"><path fill="#fff" d="M0 0h182v108H0z"/></clipPath></defs></svg>