<svg width="182" height="112" fill="none" xmlns="http://www.w3.org/2000/svg"><g filter="url(#a)"><path d="M97.375 63.202c15.325 0 27.748-12.423 27.748-27.747 0-15.325-12.423-27.748-27.748-27.748-15.324 0-27.748 12.423-27.748 27.748 0 15.324 12.424 27.747 27.748 27.747Z" fill="#E2E2F6"/><path d="M103.416 28.543 92 28.185l-.103 21.706 5.427 1.28 6.041-1.228.051-21.4Z" fill="url(#b)"/><path d="m100.396 46.41-2.714-1.229-2.355 1.332s-4.658.153-5.529.256c-2.457.358-4.607.767-5.836 1.075-2.15.46-5.068 1.638-7.32 3.788l-1.025 1.024c5.017 6.4 12.799 10.546 21.553 10.597 2.048 0 4.045-.204 5.99-.563 6.656-1.382 12.441-5.17 16.383-10.392a21.706 21.706 0 0 0-6.041-3.533c-3.84-1.536-8.243-2.355-13.106-2.355Z" fill="#E97548"/><path d="M112.12 13.44a3.748 3.748 0 0 0-2.714-3.634 3.654 3.654 0 0 0 .717-2.202 3.78 3.78 0 0 0-3.788-3.788c-.564 0-1.127.153-1.639.358a3.794 3.794 0 0 0-3.737-3.02c-1.331 0-2.457.665-3.174 1.689A3.783 3.783 0 0 0 94.508 1a3.735 3.735 0 0 0-3.634 2.816 3.846 3.846 0 0 0-1.332-.256 3.78 3.78 0 0 0-3.788 3.788c0 .563.102 1.075.307 1.536-1.69.358-2.97 1.894-2.97 3.686 0 1.434.769 2.662 1.946 3.277a3.296 3.296 0 0 0-1.075 2.406c0 1.33.82 2.508 1.945 3.02v1.383a4.666 4.666 0 0 0 4.66 4.76l14.078.103a4.698 4.698 0 0 0 4.71-4.71v-1.33a3.3 3.3 0 0 0 2.048-3.073c0-.767-.256-1.535-.717-2.099.87-.614 1.434-1.638 1.434-2.866Z" fill="#594539"/><path d="m97.683 45.796-2.202 4.3s-4.71-1.74-6.962-3.225c1.33-.46 2.764-5.017 2.764-5.017l6.4 2.867" fill="#FCFCFB"/><path d="m97.683 45.795 2.201 4.3s4.71-1.74 6.963-3.224c-1.331-.461-2.765-5.018-2.765-5.018l-6.4 2.867" fill="#FCFCFB"/><path d="M84.013 25.42c-.05 2.1 1.587 3.738 3.686 3.789h2.1c1.894-.154 1.638-1.74 1.689-3.686 0-1.945.256-3.481-1.536-3.737-.153 0-1.997-.052-2.15-.052-2.1-.05-3.789 1.587-3.789 3.686Z" fill="#9B643D"/><path d="M98.963 39.704h-2.867c-4.71-.051-8.499-3.891-8.448-8.601l.103-13.31c.051-4.71 3.89-8.5 8.6-8.448h2.868c4.71.051 8.498 3.89 8.447 8.6l-.103 13.311c-.051 4.71-3.89 8.448-8.6 8.448Z" fill="#9B643D"/><path d="M102.785 22.822c.013-.961-.389-1.746-.898-1.753-.509-.006-.932.767-.945 1.729-.013.96.389 1.746.898 1.752.509.007.932-.767.945-1.728Z" fill="#3A312E"/><path d="m90.055 35.25 7.27-.051.204-5.478c0-.41-.205-.82-.512-1.024l-1.74-1.177c-.359-.256-.461-.768-.205-1.178l1.536-2.355a3.605 3.605 0 0 0 .563-1.945l.102-8.397-7.628.052.41 21.553Z" fill="url(#c)"/><path d="M94.26 22.847c.013-.962-.39-1.746-.898-1.753-.51-.007-.932.767-.945 1.728-.013.961.39 1.746.898 1.753.509.007.932-.767.945-1.728Z" fill="#3A312E"/><path d="M111.403 25.625c0 2.099-1.639 3.737-3.738 3.737-.153 0-1.996 0-2.099-.051-1.894-.205-1.638-1.74-1.638-3.686s-.205-3.482 1.587-3.686h2.15c2.099-.051 3.738 1.638 3.738 3.686Z" fill="#9B643D"/><path d="M101.061 31.768c0 .564-.256 1.178-.716 1.639-.41.46-1.024.819-1.638 1.024-.666.153-1.28.153-1.946-.051-.563-.205-1.177-.564-1.433-1.127-.103-.205-.052-.41.153-.512.051-.05.154-.05.205-.05h.051c.512 0 .922 0 1.331-.052.359-.051.768-.103 1.127-.205.358-.102.716-.205 1.023-.358.359-.154.717-.359 1.178-.666h.051c.205-.102.41-.051.512.154.102.051.102.153.102.204Z" fill="#855035"/><path d="M104.492 6.785 91.13 6.683l-4.198 6.297.768 8.754 1.177-6.4c.41-2.047 2.253-3.48 4.352-3.48l9.266.05c2.099 0 3.84 1.485 4.249 3.533l1.075 6.4.922-8.755-4.249-6.297Z" fill="#594539"/><path d="M102.597 14.362a3.79 3.79 0 1 0 0-7.578 3.79 3.79 0 0 0 0 7.578Z" fill="#594539"/></g><g filter="url(#d)"><path d="M65.748 96.924c15.325 0 27.748-12.423 27.748-27.748 0-15.325-12.423-27.748-27.748-27.748C50.423 41.428 38 53.851 38 69.176c0 15.325 12.423 27.748 27.748 27.748Z" fill="#F4F4FC"/><path d="M80.8 50.285c-1.844-8.037-7.987-13.976-15.257-14.027-7.065 0-14.079 5.222-15.307 13.413-.87 5.631-1.485 18.328-7.782 34.506 4.915 7.628 13.465 12.696 23.14 12.747 1.588 0 3.123-.153 4.66-.358a27.886 27.886 0 0 0 18.685-12.031c-6.552-15.666-5.631-25.598-8.14-34.25Z" fill="#3A312E"/><path d="M59.963 60.524h-3.942a2.994 2.994 0 0 1-3.02-3.02c0-1.69 1.33-3.02 3.02-3.02h3.942v6.04ZM70.816 60.524h3.942c1.69 0 3.021-1.331 3.021-3.02 0-1.69-1.331-3.021-3.02-3.021h-3.943v6.04Z" fill="#BF8F68"/><path d="M82.54 81.616c-3.328-4.3-9.625-7.781-16.74-7.781-7.885 0-14.899 5.017-17.714 9.317a136.443 136.443 0 0 0-2.919 4.608c5.069 5.631 12.339 9.164 20.479 9.215 1.484 0 2.969-.102 4.403-.307a27.688 27.688 0 0 0 16.638-9.164 90.045 90.045 0 0 0-4.147-5.888Z" fill="#FAE969"/><path d="m69.69 71.172.051-8.037h-7.884v7.935c-.051 1.792-.972 3.072-2.867 3.942.359.973 3.123 3.328 6.758 3.328s6.246-1.946 7.116-3.38c-1.69-.613-3.328-1.586-3.174-3.788Z" fill="url(#e)"/><path d="M75.731 54.329c0 7.73-4.607 14.028-10.341 14.028-5.734 0-10.342-6.297-10.342-14.028 0-7.73 4.608-13.31 10.342-13.31 5.683.05 10.341 5.58 10.341 13.31Z" fill="#BF8F68"/><path d="M70.978 54.554c.013-.905-.411-1.645-.948-1.653-.537-.008-.984.72-.997 1.624-.014.904.41 1.644.948 1.652.537.008.984-.718.997-1.623Z" fill="#3A312E"/><path d="m66.055 47.93-.205 4.147a6.376 6.376 0 0 1-2.15 4.351c-.46.46-.665 1.587-.102 2.202.256.358 1.638 1.177 1.638 2.15l-.102 3.84-7.014-.308-.102-16.433 8.037.05Z" fill="url(#f)"/><path d="M64.007 62.316c.41.051.666.051 1.024 0s.666-.102 1.024-.154c.358-.05.666-.153.973-.204.358-.103.563-.154.819-.41l.102-.102c.103-.103.359-.051.41.05 0 .052.051.052.051.103.051.256 0 .666-.154.922-.153.256-.358.46-.563.665-.41.359-.921.563-1.382.666a3.124 3.124 0 0 1-1.536-.051c-.512-.154-1.075-.461-1.28-1.024-.05-.154 0-.359.154-.41h.153l.205-.051Z" fill="#9B643D"/><path d="M60.782 39.892s.973 5.17 6.81 7.526c6.757 2.816 8.14 8.396 8.14 8.396s5.63-6.092 0-13.772c-5.837-7.833-14.95-2.15-14.95-2.15Z" fill="#3A312E"/><path d="M77.745 62.224c.017-1.16-.84-2.112-1.914-2.128-1.074-.016-1.96.91-1.977 2.07-.017 1.159.84 2.112 1.915 2.128 1.074.016 1.959-.911 1.976-2.07ZM56.928 62.243c.017-1.16-.84-2.112-1.914-2.128-1.074-.016-1.96.91-1.976 2.07-.018 1.16.84 2.112 1.914 2.128 1.074.016 1.959-.91 1.976-2.07Z" fill="#A6A7DC"/><path d="M61.37 56.173c.537-.008.962-.748.948-1.653-.013-.904-.46-1.631-.997-1.623-.537.008-.961.748-.948 1.652.014.905.46 1.632.997 1.624Z" fill="#3A312E"/></g><g filter="url(#g)"><path d="M55.07 27.6c6.278 0 11.366-5.088 11.366-11.364 0-6.277-5.088-11.366-11.365-11.366S43.706 9.96 43.706 16.236c0 6.276 5.088 11.365 11.365 11.365Z" fill="#6264A7"/><path d="M60.823 15.244h-4.668v-4.668H54.08v4.668h-4.668v2.035h4.668v4.708h2.075V17.28h4.668v-2.035Z" fill="#fff"/></g><g filter="url(#h)"><path d="M116.182 108.949c15.325 0 27.748-12.424 27.748-27.748 0-15.325-12.423-27.748-27.748-27.748-15.324 0-27.747 12.423-27.747 27.748 0 15.325 12.423 27.748 27.747 27.748Z" fill="#fff"/><path d="M92.12 95.024C96.934 103.368 105.893 109 116.235 109c10.444 0 19.505-5.734 24.266-14.284-4.198-1.433-9.113-1.945-12.389-2.2-4.3-.308-20.529-.206-22.884 0-2.099.153-8.243.665-13.106 2.508Z" fill="#8B8CC7"/><path d="m102.769 69.835 27.031.153.051-9.42c0-2.508-1.996-4.658-4.607-4.658l-17.765-.103c-2.509 0-4.659 1.997-4.659 4.608l-.051 9.42Z" fill="#BF8F68"/><path d="M124.783 67.173h-16.536s.717 13.208.717 16.536c0 7.679-3.43 8.6-3.942 8.908 4.352 5.375 17.15 5.426 22.987-.052-.717-.05-3.123-1.894-3.123-8.6l-.103-16.792Z" fill="url(#i)"/><path d="M128.009 74.34a4.045 4.045 0 1 0-.001-8.089 4.045 4.045 0 0 0 .001 8.09Z" fill="#DCB38B"/><path d="M104.612 74.34a4.045 4.045 0 1 0 0-8.09 4.045 4.045 0 0 0 0 8.09Z" fill="url(#j)"/><path d="M113.879 85.603h4.351c5.376.052 9.83-4.3 9.83-9.727l.051-13.26c0-2.866-2.304-5.221-5.171-5.221l-13.259-.051c-2.919 0-5.325 2.355-5.376 5.273l-.051 13.26c0 5.324 4.3 9.727 9.625 9.727Z" fill="#DCB38B"/><path d="M121.37 68.456c.004-.877-.358-1.59-.811-1.592-.452-.002-.823.706-.828 1.583-.004.876.358 1.589.811 1.591.452.003.823-.706.828-1.582Z" fill="#33312D"/><path d="m106.353 83.965 9.573.05V75.62c0-.461-.204-.82-.614-1.127l-1.894-1.228c-.41-.256-.512-.82-.256-1.229l1.638-2.56c.41-.614.614-1.33.614-1.996l.052-9.01-9.574-.052.461 25.547Z" fill="url(#k)"/><path d="M112.043 68.429c.005-.877-.358-1.59-.81-1.592-.452-.002-.823.706-.828 1.583-.005.876.358 1.589.811 1.591.452.003.823-.706.827-1.582Z" fill="#33312D"/><path d="M120.176 76.49c-.051.615-.359 1.178-.768 1.638-.461.461-1.024.768-1.587.973-.614.154-1.229.205-1.843.051-.615-.153-1.178-.46-1.587-.972-.103-.154-.051-.359.051-.461.051-.051.154-.051.205-.051h.051c.512.05.973.05 1.331 0a8.793 8.793 0 0 0 1.229-.205 4.346 4.346 0 0 0 1.126-.46c.41-.154.717-.462 1.178-.769.153-.102.358-.051.46.051.154.052.154.103.154.205Z" fill="#BF8F68"/><path d="M103.332 66.66h-.512V56.576h4.506v6.092a3.999 3.999 0 0 1-3.994 3.994Z" fill="url(#l)"/><path d="M112.241 61.08c3.43-.614 4.914-2.61 8.344-2.969 4.864-.46 5.939.973 5.939.973l.41-1.74c-.103-3.584-2.151-6.451-5.376-5.632-6.86 1.74-5.273-1.024-8.191-1.178-2.765-.153-3.379 2.56-4.505 2.56-2.816.051-2.304-3.583-6.451-2.56-3.635.922-6.041 13.363 9.83 10.547Z" fill="#BF8F68"/></g><defs><radialGradient id="b" cx="0" cy="0" r="1" gradientUnits="userSpaceOnUse" gradientTransform="matrix(9.06374 .09395 -.08383 8.08812 98.015 36.459)"><stop stop-color="#724937"/><stop offset=".769" stop-color="#9B643D"/></radialGradient><radialGradient id="c" cx="0" cy="0" r="1" gradientUnits="userSpaceOnUse" gradientTransform="matrix(8.17668 .1674 -.15089 7.36995 98.018 26.327)"><stop stop-color="#724937"/><stop offset=".448" stop-color="#905D3B"/><stop offset=".703" stop-color="#9B643D"/></radialGradient><radialGradient id="e" cx="0" cy="0" r="1" gradientUnits="userSpaceOnUse" gradientTransform="translate(65.825 64.365) scale(7.58363)"><stop offset="0" stop-color="#9B643D"/><stop offset="1" stop-color="#BF8F68"/></radialGradient><radialGradient id="f" cx="0" cy="0" r="1" gradientUnits="userSpaceOnUse" gradientTransform="rotate(175.682 31.377 30.11) scale(4.82955 5.09154)"><stop offset="0" stop-color="#9B643D"/><stop offset=".882" stop-color="#BA8A63" stop-opacity=".118"/><stop offset="1" stop-color="#BF8F68" stop-opacity="0"/></radialGradient><radialGradient id="i" cx="0" cy="0" r="1" gradientUnits="userSpaceOnUse" gradientTransform="matrix(14.0213 0 0 14.2223 112.41 76.642)"><stop stop-color="#915A37"/><stop offset=".612" stop-color="#C1936D"/><stop offset="1" stop-color="#DCB38B"/></radialGradient><radialGradient id="j" cx="0" cy="0" r="1" gradientUnits="userSpaceOnUse" gradientTransform="translate(106.407 70.466) scale(4.49214)"><stop stop-color="#915A37"/><stop offset=".074" stop-color="#9A6541"/><stop offset=".335" stop-color="#B78761"/><stop offset=".583" stop-color="#CB9F78"/><stop offset=".811" stop-color="#D8AE86"/><stop offset="1" stop-color="#DCB38B"/></radialGradient><radialGradient id="k" cx="0" cy="0" r="1" gradientUnits="userSpaceOnUse" gradientTransform="matrix(7.86937 .09957 -.08975 7.09304 116.907 72.265)"><stop stop-color="#9B643D"/><stop offset=".199" stop-color="#A46F48" stop-opacity=".801"/><stop offset=".691" stop-color="#B8865F" stop-opacity=".309"/><stop offset="1" stop-color="#BF8F68" stop-opacity="0"/></radialGradient><radialGradient id="l" cx="0" cy="0" r="1" gradientUnits="userSpaceOnUse" gradientTransform="translate(105.541 59.683) scale(3.91031)"><stop stop-color="#9B643D"/><stop offset="1" stop-color="#BF8F68"/></radialGradient><filter id="a" x="67.827" y="0" width="59.096" height="65.853" filterUnits="userSpaceOnUse" color-interpolation-filters="sRGB"><feFlood flood-opacity="0" result="BackgroundImageFix"/><feColorMatrix in="SourceAlpha" values="0 0 0 0 0 0 0 0 0 0 0 0 0 0 0 0 0 0 127 0" result="hardAlpha"/><feOffset dy=".8"/><feGaussianBlur stdDeviation=".9"/><feColorMatrix values="0 0 0 0 0 0 0 0 0 0 0 0 0 0 0 0 0 0 0.13 0"/><feBlend in2="BackgroundImageFix" result="effect1_dropShadow_406_66353"/><feColorMatrix in="SourceAlpha" values="0 0 0 0 0 0 0 0 0 0 0 0 0 0 0 0 0 0 127 0" result="hardAlpha"/><feOffset dy=".15"/><feGaussianBlur stdDeviation=".225"/><feColorMatrix values="0 0 0 0 0 0 0 0 0 0 0 0 0 0 0 0 0 0 0.11 0"/><feBlend in2="effect1_dropShadow_406_66353" result="effect2_dropShadow_406_66353"/><feBlend in="SourceGraphic" in2="effect2_dropShadow_406_66353" result="shape"/></filter><filter id="d" x="36.2" y="35.258" width="59.096" height="64.317" filterUnits="userSpaceOnUse" color-interpolation-filters="sRGB"><feFlood flood-opacity="0" result="BackgroundImageFix"/><feColorMatrix in="SourceAlpha" values="0 0 0 0 0 0 0 0 0 0 0 0 0 0 0 0 0 0 127 0" result="hardAlpha"/><feOffset dy=".8"/><feGaussianBlur stdDeviation=".9"/><feColorMatrix values="0 0 0 0 0 0 0 0 0 0 0 0 0 0 0 0 0 0 0.13 0"/><feBlend in2="BackgroundImageFix" result="effect1_dropShadow_406_66353"/><feColorMatrix in="SourceAlpha" values="0 0 0 0 0 0 0 0 0 0 0 0 0 0 0 0 0 0 127 0" result="hardAlpha"/><feOffset dy=".15"/><feGaussianBlur stdDeviation=".225"/><feColorMatrix values="0 0 0 0 0 0 0 0 0 0 0 0 0 0 0 0 0 0 0.11 0"/><feBlend in2="effect1_dropShadow_406_66353" result="effect2_dropShadow_406_66353"/><feBlend in="SourceGraphic" in2="effect2_dropShadow_406_66353" result="shape"/></filter><filter id="g" x="41.906" y="3.87" width="26.331" height="26.331" filterUnits="userSpaceOnUse" color-interpolation-filters="sRGB"><feFlood flood-opacity="0" result="BackgroundImageFix"/><feColorMatrix in="SourceAlpha" values="0 0 0 0 0 0 0 0 0 0 0 0 0 0 0 0 0 0 127 0" result="hardAlpha"/><feOffset dy=".8"/><feGaussianBlur stdDeviation=".9"/><feColorMatrix values="0 0 0 0 0 0 0 0 0 0 0 0 0 0 0 0 0 0 0.13 0"/><feBlend in2="BackgroundImageFix" result="effect1_dropShadow_406_66353"/><feColorMatrix in="SourceAlpha" values="0 0 0 0 0 0 0 0 0 0 0 0 0 0 0 0 0 0 127 0" result="hardAlpha"/><feOffset dy=".15"/><feGaussianBlur stdDeviation=".225"/><feColorMatrix values="0 0 0 0 0 0 0 0 0 0 0 0 0 0 0 0 0 0 0.11 0"/><feBlend in2="effect1_dropShadow_406_66353" result="effect2_dropShadow_406_66353"/><feBlend in="SourceGraphic" in2="effect2_dropShadow_406_66353" result="shape"/></filter><filter id="h" x="86.635" y="49.352" width="59.096" height="62.248" filterUnits="userSpaceOnUse" color-interpolation-filters="sRGB"><feFlood flood-opacity="0" result="BackgroundImageFix"/><feColorMatrix in="SourceAlpha" values="0 0 0 0 0 0 0 0 0 0 0 0 0 0 0 0 0 0 127 0" result="hardAlpha"/><feOffset dy=".8"/><feGaussianBlur stdDeviation=".9"/><feColorMatrix values="0 0 0 0 0 0 0 0 0 0 0 0 0 0 0 0 0 0 0.13 0"/><feBlend in2="BackgroundImageFix" result="effect1_dropShadow_406_66353"/><feColorMatrix in="SourceAlpha" values="0 0 0 0 0 0 0 0 0 0 0 0 0 0 0 0 0 0 127 0" result="hardAlpha"/><feOffset dy=".15"/><feGaussianBlur stdDeviation=".225"/><feColorMatrix values="0 0 0 0 0 0 0 0 0 0 0 0 0 0 0 0 0 0 0.11 0"/><feBlend in2="effect1_dropShadow_406_66353" result="effect2_dropShadow_406_66353"/><feBlend in="SourceGraphic" in2="effect2_dropShadow_406_66353" result="shape"/></filter></defs></svg>