<svg width="179" height="112" fill="none" xmlns="http://www.w3.org/2000/svg"><path d="M5.046 94.77V14.72c0-7.405 6.06-13.408 13.535-13.408h136.48c7.475 0 13.535 6.003 13.535 13.408v80.05c0 7.405-6.06 13.408-13.535 13.408H18.581c-7.475 0-13.535-6.003-13.535-13.408Z" fill="#979593"/><path d="M86.87 54.77H10.965V15.962c0-4.832 3.942-8.786 8.87-8.786H86.87V54.77Z" fill="#fff"/><path opacity=".7" d="M86.87 54.77H10.965V15.962c0-4.832 3.942-8.786 8.87-8.786H86.87V54.77Z" fill="url(#a)"/><path d="m53.593 31.467-8.93-.279-.07 16.857 4.219.975 4.71-.906V31.468h.071Z" fill="url(#b)"/><path d="M48.917 81.668c13.324 0 24.126-8.25 24.126-18.428 0-10.177-10.802-18.428-24.126-18.428-13.324 0-24.126 8.25-24.126 18.428s10.802 18.428 24.126 18.428Z" fill="#B3B0AD"/><path d="M41.476 45.705c2.056-.54 2.028-3.305 2.028-3.305h11.152s.088 2.863 1.909 3.36c-1.283 1-4.068 1.529-7.649 1.529-4.41 0-6.975-1.008-7.44-1.584Z" fill="#B3B0AD"/><path d="M39.519 21.987c.05 1.534 1.48 2.681 3.022 2.563 1.542-.12 2.706-1.466 2.586-2.994-.06-.764-.465-1.431-.994-1.88.668-.47 1.094-1.342 1.093-2.25.437.176.793.219 1.214.186 1.122-.086 3.753-.707 4.664-.778.491-.037 1.04-.22 1.44-.53.567.935 1.468 1.634 2.676 1.75-.054.215-.038.423-.021.631.032.417.205.823.448 1.223a2.426 2.426 0 0 0-.829 2.02c.115 1.459 1.399 2.547 2.871 2.434 1.472-.113 2.566-1.455 2.457-2.844-.027-.347-.119-.62-.286-.956a2.789 2.789 0 0 0 1.012-2.383c-.093-1.18-.87-2.099-1.954-2.435.178-.432.274-.999.236-1.485-.152-1.944-1.814-3.354-3.777-3.203-.912.07-1.72.552-2.308 1.156-.55-.726-1.354-1.083-2.335-1.008-1.122.086-2.055.787-2.404 1.722a2.615 2.615 0 0 0-2.26-.944c-1.473.113-2.502 1.38-2.528 2.85a2.506 2.506 0 0 0-1.213-.187c-1.543.119-2.707 1.466-2.587 2.994.06.764.465 1.431.994 1.88-.733.545-1.25 1.143-1.217 2.468Z" fill="#594539"/><path d="m59.058 30.126-17.175 1.321-1.177-15 17.176-1.322 1.176 15Z" fill="url(#c)"/><path d="M57.847 26.376s-1.397.177-1.537.188c-1.32.241-1.023 1.336-.91 2.795.18 1.383.062 2.58 1.475 2.611l1.542-.119c1.537-.188 2.707-1.465 2.517-2.988-.12-1.528-1.474-2.611-3.087-2.487Z" fill="#9B643D"/><path d="m44.11 34.21-.816-9.509c-.273-3.472 2.314-6.466 5.814-6.805l2.103-.162a6.39 6.39 0 0 1 6.869 5.76l.746 9.514c.267 3.403-2.508 6.69-6.008 7.03l-1.612.123c-3.506.27-6.824-2.479-7.096-5.951Z" fill="#9B643D"/><path d="M48.715 28.975c.387-.035.646-.653.58-1.381-.068-.728-.436-1.29-.822-1.255-.387.035-.646.653-.58 1.381.068.728.436 1.29.822 1.255Z" fill="#3A312E"/><path d="m57.158 20.281-5.684.367.555 6.176c.043.555.222 1.03.535 1.426l1.258 1.65c.167.336.194.684-.07.913l-1.261 1.006c-.2.155-.313.513-.29.79l.455 4.018 5.404-.346-.902-16Z" fill="url(#d)"/><path opacity=".6" d="M49.219 34.166c.163 1.175 1.156 2.147 2.44 2.328 1.278.11 2.48-.75 2.813-1.894-.022-.278-.103-.41-.324-.534l-.07.006-4.336-.435-.14.01c-.216-.053-.48.177-.383.52Z" fill="#231F20"/><path d="m49.666 33.573.14-.01 4.337.434.07-.005.226.192c-.755.268-1.655.477-2.583.338a5.045 5.045 0 0 1-2.46-.789c-.005-.07.136-.08.27-.16Z" fill="#F8F8F8"/><path d="M55.008 28.543c.387-.035.646-.654.579-1.382-.067-.728-.435-1.29-.822-1.255-.387.035-.646.654-.579 1.382.067.728.435 1.29.822 1.255Z" fill="#3A312E"/><path d="m42.956 27.591 1.542-.118c1.343.036 1.296 1.228 1.404 2.617.11 1.389.412 2.553-.98 2.8.006.07-1.396.177-1.536.188-1.542.118-2.827-.97-2.946-2.498-.12-1.528 1.05-2.806 2.516-2.988Z" fill="#9B643D"/><path d="m41.614 21.267 1.924 6.28.175-4.695c.23-1.554 1.405-2.762 2.947-2.881l6.865-.598c1.543-.119 3.026.815 3.427 2.321l1.108 4.821.718-6.708-3.934-4.308-9.88.83-3.35 4.938Z" fill="url(#e)"/><path d="M41.252 21.155c-.236 1.486.865 2.938 2.43 3.097 1.137.122 2.361-.461 2.846-1.476.366.18.809.426 1.235.463 1.5.234 2.965-.857 3.126-2.406.236-1.485-.865-2.938-2.429-3.097-1.138-.122-2.362.462-2.846 1.477-.367-.181-.81-.427-1.236-.464-1.424-.17-2.825.846-3.126 2.406Z" fill="#594539"/><path d="M86.87 54.77v47.544H19.834c-4.874 0-8.867-3.903-8.867-8.784V54.77h75.905Z" fill="#fff"/><path d="M86.87 54.77v47.544H19.834c-4.874 0-8.867-3.903-8.867-8.784V54.77h75.905Z" fill="url(#f)"/><g filter="url(#g)"><path d="M162.676 54.77H86.771V7.176h67.035c4.878 0 8.87 3.905 8.87 8.787V54.77Z" fill="url(#h)"/></g><path d="M95.013 67.035h54.641s-.143-1.2-.071-1.837c.428-2.756 6.491-3.109 5.278-9.61-.713-3.886-6.776-4.452-7.561-7.985-.714-3.533 2.425-5.794.999-9.116-1.498-3.391-5.279-3.674-7.562-6.713-1.997-2.756-2.068-4.098-1.997-6.289.214-5.37-2.069-8.62-5.707-10.6-1.284-.706-2.782-1.2-4.28-1.271l-3.424-.212c-1.569-.07-2.996.141-4.351.706-1.213.495-2.425 1.202-3.424 2.12-2.069 1.908-3.495 4.735-3.638 7.773-.071 1.343-.999 3.675-3.067 6.007-2.639 2.897-6.991 2.473-8.845 5.653-1.855 3.25 1.569 6.148.428 9.61-1.213 3.463-7.134 3.25-8.917 6.854-2.354 4.735 3.424 8.197 3.21 11.519-.143 1.413-.214 2.756-1.712 3.392Z" fill="url(#i)"/><path d="M136.458 67.035h7.775v-6.289c0-2.402-1.926-4.31-4.352-4.31h-3.495v10.6h.072Z" fill="url(#j)"/><path d="M114.344 67.035h-7.775v-6.289c0-2.402 1.926-4.31 4.351-4.31h3.495v10.6h-.071Z" fill="url(#k)"/><path d="M106.498 67.954h37.735V60.11c0-9.398-7.704-17.03-17.192-17.03h-3.352c-9.488 0-17.191 7.632-17.191 17.03v7.844Z" fill="url(#l)"/><path d="M128.325 35.237h-5.92v8.691h5.92v-8.691Z" fill="url(#m)"/><path d="M119.623 43.575c2.71-.707 2.782-3.463 2.782-3.463h5.92s.071 2.756 2.782 3.463c-.428.353-2.996 1.908-5.635 1.908s-5.35-1.555-5.849-1.908Z" fill="#797673"/><path d="M128.298 29.43c.156-.725-.031-1.379-.416-1.46-.386-.081-.824.441-.979 1.167-.156.725.031 1.379.416 1.46.385.08.824-.442.979-1.167ZM121.317 27.924c.156-.725-.031-1.38-.416-1.46-.385-.081-.824.441-.979 1.166-.156.726.031 1.38.416 1.46.385.082.824-.44.979-1.166Z" fill="#33312D"/><path d="m122.355 37.64-.214-.071c-4.494-.919-7.419-5.512-6.491-10.459v-.07c.784-4.381 4.85-7.42 8.988-6.572l2.496.495c4.137.848 6.634 5.229 5.493 9.61v.07c-1.284 4.947-5.849 7.986-10.272 6.996Z" fill="#FADCBD"/><path d="m116.976 24.833 6.349 1.343-1.427 6.854-6.42-1.343 1.498-6.854Z" fill="url(#n)"/><path d="M125.108 28.79c.784-.777 1.783-.495 2.211.07.499.566.571 1.414-.143.99-.285-.141-.499-.495-1.212-.495-.286 0-1.07.212-1.07-.282.071-.07.142-.212.214-.283ZM120.4 28.013c-.214.424-.785-.07-1.07-.212-.642-.283-.999-.141-1.284-.07-.856 0-.428-.707.285-.99.642-.283 1.712-.07 1.997.919.072.07.072.282.072.353Z" fill="#33312D"/><path d="M135.135 29.442a6.075 6.075 0 0 1-2.996.142c-3.21-.707-5.35-3.746-4.85-6.925l-5.279-1.131c-.856 3.11-4.066 5.088-7.276 4.381-1.141-.212 2.782-9.116 2.782-9.116l16.121 3.392c-.071 0 1.712 8.763 1.498 9.257Z" fill="#FCFCFB"/><path d="M127.431 22.164c.071-.636-.428-1.343-1.07-1.484-.642-.142-1.355.283-1.569.919l-.143.494 2.639.566s.072-.424.143-.495Z" fill="#BDBDE6"/><path d="M123.722 20.115c-.642-.142-1.355.282-1.57.918l-.142.495 2.639.565.143-.494c.071-.707-.286-1.343-1.07-1.484Z" fill="#BDBDE6"/><path d="M124.109 26.246s-.571.07-.999 1.272c-.642 1.484-1.783 1.343-1.783 2.544 0 .706.927 1.201.856 1.696-.071.07 2.853.141 1.926-5.512Z" fill="#FADCBD"/><path d="M120.899 32.96c.57.211.713.282 1.427.211.642 0 1.07-.212 1.355-.283.143-.07.357.071.285.283-.071.353-.357.565-.713.777-.285.212-.642.283-.999.283s-.713-.07-1.07-.283c-.285-.212-.571-.494-.642-.848-.071-.07.071-.282.357-.14.285.14 0 0 0 0Z" fill="#E38BB0"/><path d="M162.676 54.77v38.76c0 4.881-3.992 8.784-8.873 8.784H86.772V54.77h75.904Z" fill="url(#o)"/><path d="M52.576 82.244c6.213-1.198 10.24-7.302 8.996-13.633-1.244-6.33-7.289-10.492-13.502-9.294-6.212 1.199-10.24 7.302-8.996 13.633 1.244 6.331 7.29 10.492 13.502 9.294Z" fill="#5A4539"/><path d="M43.884 85.37c1.937 0 3.506-1.737 3.506-3.88 0-2.144-1.57-3.882-3.506-3.882-1.936 0-3.506 1.738-3.506 3.881 0 2.144 1.57 3.881 3.506 3.881Z" fill="#5A4539"/><path d="M56.504 90.392c-2.303-1.416-4.964-2.232-7.782-2.232-4.606 0-10.843 1.751-17.81 13.574-.122.168-.247.39-.337.58H67.26c-3.316-6.292-8.762-10.695-10.756-11.922Z" fill="#ED9583"/><path d="M45.268 87.074c-1.755 1.847-4.222 3.205-4.222 3.205h7.292c.658 0 1.206.434 1.37 1.086l1.043 3.313.987-3.313c.11-.652.712-1.086 1.37-1.086h3.29s-1.675-1.092-2.498-2.232c-1.206-1.684.549-8.69.549-8.69l-6.604-.376s-1.371 6.79-2.577 8.093Z" fill="url(#p)"/><path d="M55.753 79.71c.193.046.39.263.312.523-.248.902-1.06 1.546-1.965 1.472-.904-.075-1.657-.841-1.794-1.834-.043-.273.157-.52.4-.493l3.047.332Z" fill="#6E3A18"/><path d="M55.978 79.686c-.387.373-1.197.554-2.069.41-.558-.086-1.121-.343-1.46-.624a.351.351 0 0 1 .309-.113l3.008.23.212.097Z" fill="#fff"/><path d="M43.831 73.874c1.164 5.943 6.1 11.383 11.322 10.34 5.223-1.042 7.429-8.45 6.265-14.393-.933-4.696-5.525-7.764-10.266-6.84-4.74.924-8.253 6.196-7.32 10.893Z" fill="#BD8F6B"/><path d="m55.2 80.924 5.149-1.744-1.92-9.771-5.292 1.01L55.2 80.924Z" fill="url(#q)"/><path d="M52.477 80.133c-.138-.457.269-.508.444-.433.702.302 1.532.43 2.154.266.733-.194.826.31.293.738-.294.236-.636.466-1.262.461-.71-.005-1.43-.371-1.629-1.032Z" fill="#9A6642"/><path d="M57.773 74.74c.416-.08.631-.766.48-1.532-.15-.766-.61-1.321-1.025-1.24-.416.08-.632.765-.481 1.53.15.766.61 1.322 1.026 1.242ZM50.596 76.203c.416-.08.631-.766.48-1.532-.15-.765-.609-1.32-1.025-1.24-.416.08-.632.766-.481 1.531.15.766.61 1.321 1.026 1.241Z" fill="#3B322F"/><path d="M54.776 74.894c-.932-.933-1.531-3.009-1.531-3.009s-.398 5.611 1.558 7.096c.21-1.003 1.638-2.128 1.532-2.726-.176-.63-.824-.646-1.559-1.361Z" fill="#BD8F6B"/><path d="M44.935 90.118c1.702-.228 2.863-2.013 2.594-3.987-.268-1.975-1.866-3.391-3.568-3.164-1.702.228-2.863 2.013-2.594 3.987.269 1.975 1.866 3.391 3.568 3.164Z" fill="#5A4539"/><path d="M45.272 94.3c1.365-.054 2.42-1.379 2.357-2.96-.064-1.58-1.222-2.818-2.587-2.764-1.366.053-2.42 1.379-2.357 2.96.063 1.58 1.222 2.818 2.587 2.764Z" fill="#5A4539"/><path d="M47.553 97.32c-.241.664-.949 1.33-1.19 2.023-.328.95-.07 1.371-.07 1.371s-2.88-.933-3.502-2.906c-.233-.741-.347-1.548-.027-2.43.57-1.57 2.014-2.111 3.3-1.653 1.285.458 2.06 2.025 1.489 3.596Z" fill="#5A4539"/><path d="M42.946 77.969a2.349 2.349 0 0 1 1.888-2.775l2.448-.49.913 4.645-2.447.49c-1.26.229-2.551-.572-2.802-1.87Z" fill="#BD8F6B"/><path d="M64.438 63.968c4.553 5.63.427 12.12-.755 14.752-1.251 2.6-.633 3.474-.633 3.474-3.196-3.868-.37-4.44-1.672-8.247-.866-2.636-4.495-3.277-7.695-5.117-3.27-1.873-5.444-4.725-5.94-5.586 0 0 10.731-6.648 16.695.724Z" fill="#5A4539"/><path d="M41.782 68.769c-.802 5.215 4.161 7.988 4.161 7.988s-1.319-3.223 1.26-5.556c3.352-3.08 3.555-6.455 2.458-7.674-2.987-3.308-7.513 2.618-7.879 5.242Z" fill="#5A4539"/><g filter="url(#r)"><path d="M118.023 89.202c-.079.03-.213.094-.733.26-1.173.37-11.716 3.988-15.106 12.852h45.499a8.96 8.96 0 0 0 2.389-.331c-2.336-10.487-13.536-13.095-14.962-13.404-1.322-.287-17.087.623-17.087.623Z" fill="url(#s)"/></g><path d="M121.483 77.831c.052-.052.105-.052.209-.052.105.052.21.208.158.312-.262.882-1.153 1.505-2.044 1.61-.472.051-.944 0-1.363-.156-.42-.156-.839-.468-1.048-.883v-.156c.052-.104.209-.208.314-.156.367.104.681.156.996.156.314 0 .629 0 .943-.052.315-.052.577-.104.891-.207.315-.104.577-.26.944-.416Z" fill="#BF8F68"/><path d="M132.175 85.983c.682 1.817 2.307 2.284 2.936 2.596-4.351 4.102-13.68 6.75-17.821.882 1.363-.727 2.685-1.326 2.527-3.819-.157-2.492-2.16-13.886-2.16-13.886l14.896.31c-.421 2.324-2.317 8.88-.378 13.917Z" fill="url(#t)"/><path d="m117.29 67.602.104-.779c.42-2.596 2.883-4.361 5.504-3.946l8.229 1.298c2.889.529 2.652 4.927 2.426 5.597-.44 1.309-.967 3.073-1.281 4.475-.367 1.817-11.051-1.193-11.051-1.193-2.621-.415-4.403-2.856-3.931-5.452Z" fill="url(#u)"/><path d="M131.603 77.83c1.65 0 2.988-1.324 2.988-2.959 0-1.634-1.338-2.96-2.988-2.96s-2.987 1.326-2.987 2.96c0 1.635 1.337 2.96 2.987 2.96Z" fill="#DCB38B"/><path d="m112.067 75.772 1.836-11.484 14.307.298c2.153.326 3.606 2.39 3.283 4.561l-1.292 8.2c-.861 5.374-5.865 9.012-11.138 8.144-4.574-.706-7.695-5.05-6.996-9.72Z" fill="url(#v)"/><path d="m112.611 72.686 1.338-8.69 14.37.267c2.082.28 1.236 1.479.924 3.343l-.953 6.511c-.832 4.613-5.368 5.16-8.458 5.419-3.091.259-7.897-2.843-7.221-6.85Z" fill="#DCB38B"/><path d="M123.46 72.183c.115-.708-.093-1.33-.464-1.389-.372-.059-.766.467-.881 1.175-.115.707.093 1.33.464 1.388.372.06.766-.466.881-1.174Z" fill="#5A463A"/><path d="m113.411 63.033 7.023 1.09-1.048 6.543c-.105.519-.314.986-.681 1.402l-1.52 1.661c-.262.26-.21.675.052.935l1.258 1.142c.262.26.367.571.315.883l-.944 6.127-7.023-1.09 2.568-18.693Z" fill="url(#w)"/><path d="M119.584 81.448c-1.627 0-3.029-.933-3.573-2.376-.275-.7-.081-1.519.503-2.066l.082-.07c.277-.223.588-.37.926-.438l.098-.017 3.929-.519a1.927 1.927 0 0 1 1.508.426c.514.387.79 1.091.667 1.795-.238 1.669-1.675 2.984-3.571 3.226a4.098 4.098 0 0 1-.569.038Z" fill="#BF8F68"/><path d="M122.268 77.932c-.155 1.09-1.1 1.873-2.303 2.026-1.152.161-2.201-.417-2.57-1.397-.067-.168-.007-.358.133-.49a.658.658 0 0 1 .288-.139l3.928-.52a.444.444 0 0 1 .362.096.432.432 0 0 1 .162.424Z" fill="#842F25"/><path d="M122.106 77.507a4.165 4.165 0 0 1-1.883.849c-1.137.241-2.134.117-2.695-.285a.658.658 0 0 1 .288-.14l3.928-.519a.444.444 0 0 1 .362.095Z" fill="#fff"/><path d="M131.284 72.016s-.996-.156-1.677-.26c-.419-1.661-2.726-2.596-2.359-4.777.577-3.53 4.823-1.661 4.823-1.661l-.787 6.698Z" fill="url(#x)"/><path d="M117.276 71.198c.115-.708-.093-1.33-.464-1.389-.372-.059-.766.467-.881 1.175-.115.707.093 1.33.464 1.388.372.06.766-.466.881-1.174Z" fill="#5A463A"/><path d="M129.511 75.263c.659 0 1.194-.53 1.194-1.184 0-.653-.535-1.183-1.194-1.183-.66 0-1.195.53-1.195 1.183a1.19 1.19 0 0 0 1.195 1.184Z" fill="#BF8F68"/><path d="m113.301 67.196 23.78 4.331a1.456 1.456 0 0 0 1.696-1.158 1.444 1.444 0 0 0-1.169-1.68l-23.78-4.332-.527 2.84Z" fill="#B3B0AD"/><path d="m133.715 68.813-20.132-3.107.144-.92c.77-4.894 5.397-8.242 10.337-7.48l2.246.347c4.939.762 8.32 5.346 7.55 10.239l-.145.92Z" fill="#B3B0AD"/><path d="m123.912 66.406-7.453-1.15.167-1.06c.253-1.61 1.777-2.713 3.403-2.462l1.563.241c1.627.251 2.74 1.76 2.486 3.372l-.166 1.06Z" fill="#BF8F68"/><path d="M14.956 86.315c7.72-1.757 10.37-7.778 8.883-14.121-1.487-6.344-6.55-10.608-14.27-8.851C1.852 65.1-.8 71.12.688 77.465c1.488 6.343 6.55 10.608 14.27 8.85Z" fill="url(#y)"/><path d="M14.956 86.314c7.72-1.757 10.37-7.777 8.883-14.121s-6.55-10.608-14.27-8.85C1.852 65.098-.8 71.12.688 77.462c1.488 6.345 6.55 10.609 14.27 8.852Z" fill="url(#z)"/><path d="M4.689 72.244s-.178-1.69 1.683-2.113a2.026 2.026 0 0 1 2.453 1.171" stroke="url(#A)" stroke-width="1.236" stroke-linecap="round" stroke-linejoin="round"/><path d="M13.792 70.16s.029-1.735 1.683-2.112c1.655-.377 2.454 1.17 2.454 1.17" stroke="url(#B)" stroke-width="1.236" stroke-linecap="round" stroke-linejoin="round"/><path d="M13.992 82.213c-7.444 1.695-9.177-5.693-9.177-5.693l14.89-3.39s1.732 7.388-5.712 9.083Z" fill="url(#C)"/><path d="m5.74 76.746-.097-.41 13.24-3.016.097.411a.84.84 0 0 1-.635 1.01L6.759 77.379a.853.853 0 0 1-1.02-.633Z" fill="url(#D)"/><path fill-rule="evenodd" clip-rule="evenodd" d="M2.534 81.915c.785.303 1.71.028 2.178-.716l2.139-3.4a1.78 1.78 0 0 0-.578-2.462 1.807 1.807 0 0 0-2.48.565l-2.14 3.4a1.772 1.772 0 0 0-.221.523c.31.743.678 1.442 1.102 2.09Z" fill="url(#E)"/><path fill-rule="evenodd" clip-rule="evenodd" d="m24.15 73.948-3.185-1.976a1.807 1.807 0 0 0-2.48.565 1.78 1.78 0 0 0 .577 2.46l3.434 2.13a1.81 1.81 0 0 0 1.612.15c.159-1.07.17-2.188.042-3.33Z" fill="url(#F)"/><path d="m5.833 77.168-2.139 3.4a1.808 1.808 0 0 1-2.604.481 1.779 1.779 0 0 1-.454-2.378l2.139-3.4a1.807 1.807 0 0 1 2.48-.565 1.78 1.78 0 0 1 .578 2.462Z" fill="url(#G)"/><path d="m19.285 74.082 3.434 2.13a1.805 1.805 0 0 0 2.554-.693 1.78 1.78 0 0 0-.65-2.332l-3.435-2.13a1.807 1.807 0 0 0-2.48.564 1.78 1.78 0 0 0 .577 2.461Z" fill="url(#H)"/><path d="M157.054 42.115c1.846-5.62 6.756-9.082 13.588-6.893 6.832 2.19 8.75 7.84 6.905 13.46-1.845 5.621-6.756 9.083-13.588 6.894-6.832-2.19-8.75-7.84-6.905-13.46Z" fill="url(#I)"/><path d="M162.229 40.562a.722.722 0 0 1-.197-1.114c.058-.066 1.443-1.611 3.075-1.102 1.631.508 1.868 2.56 1.877 2.647.042.4-.25.759-.653.801a.73.73 0 0 1-.806-.645c-.001-.008-.15-1.192-.862-1.415-.705-.22-1.522.663-1.53.672a.74.74 0 0 1-.904.156ZM170.311 43.089a.721.721 0 0 1-.216-1.09c.502-.62 1.719-1.555 3.094-1.126 1.664.52 1.869 2.57 1.877 2.656a.731.731 0 0 1-.662.794.729.729 0 0 1-.798-.655c-.001-.009-.138-1.18-.861-1.406-.763-.238-1.504.64-1.511.65a.741.741 0 0 1-.923.177Z" fill="#32202B"/><path d="M165.207 51.957c-4.806-1.5-5.006-5.382-4.758-7.387a1.075 1.075 0 0 1 1.391-.882l10.93 3.41c.639.2.943.925.626 1.511-.962 1.782-3.382 4.847-8.189 3.348Z" fill="url(#J)"/><path d="m161.425 43.561 11.753 3.671c-.281.88-1.48 1.29-2.68.915l-7.41-2.315c-1.199-.374-1.944-1.391-1.663-2.27Z" fill="url(#K)"/><g filter="url(#L)"><path d="M154.135 66.272c4.203-1.123 6.819 1.852 7.685 3.748 1.572-1.387 5.189-3.061 8.568-.356 4.345 3.48 1.801 9.381-2.651 12.311-2.173 1.43-5.999 3.948-8.677 5.234a1.45 1.45 0 0 1-1.769-.404c-1.737-2.158-4.43-6.077-5.807-8.222-2.862-4.456-2.755-10.866 2.651-12.31Z" fill="url(#M)"/></g><g opacity=".75" filter="url(#N)"><path opacity=".75" d="m160.903 70.265-1.588 7.38-2.929-10.037 4.517 2.657Z" fill="#FFB5C2"/></g><g opacity=".75" filter="url(#O)"><path opacity=".75" d="M168.746 75.347c1.122.234 2.229-.495 2.473-1.628a2.07 2.07 0 0 0-1.589-2.475c-1.122-.234-2.229.494-2.473 1.627a2.071 2.071 0 0 0 1.589 2.476Z" fill="#FF98AB"/></g><g filter="url(#P)"><path d="m160.78 78.816 1.589-7.38c2.047-1.63 4.994-1.529 6.212-1.274l-7.801 8.654Z" fill="#E9234C"/></g><g filter="url(#Q)"><path d="m158.561 85.194-2.545-3.965 6.505 1.358-3.96 2.607Z" fill="#FF2396"/></g><defs><linearGradient id="a" x1="48.917" y1="72.498" x2="48.917" y2="37.469" gradientUnits="userSpaceOnUse"><stop offset=".002" stop-color="#ED9583"/><stop offset="1" stop-color="#FDC9B5"/></linearGradient><linearGradient id="c" x1="49.987" y1="24.627" x2="50.099" y2="26.075" gradientUnits="userSpaceOnUse"><stop offset=".004" stop-color="#594539"/><stop offset="1" stop-color="#9B643D"/></linearGradient><linearGradient id="e" x1="50.519" y1="24.654" x2="50.631" y2="26.113" gradientUnits="userSpaceOnUse"><stop offset=".004" stop-color="#594539"/><stop offset="1" stop-color="#9B643D"/></linearGradient><linearGradient id="f" x1="48.919" y1="105.664" x2="48.919" y2="64.872" gradientUnits="userSpaceOnUse"><stop stop-color="#BDBDE6"/><stop offset="1" stop-color="#E2E2F6"/></linearGradient><linearGradient id="h" x1="124.723" y1="7.176" x2="124.096" y2="54.76" gradientUnits="userSpaceOnUse"><stop stop-color="#BDBEE3"/><stop offset="1" stop-color="#8E91E4"/></linearGradient><linearGradient id="i" x1="123.986" y1="53.247" x2="123.986" y2="35.528" gradientUnits="userSpaceOnUse"><stop stop-color="#E2E2F6"/><stop offset="1" stop-color="#FCFCFB"/></linearGradient><linearGradient id="j" x1="132.535" y1="64.952" x2="139.983" y2="61.812" gradientUnits="userSpaceOnUse"><stop stop-color="#605D5A"/><stop offset="1" stop-color="#797673"/></linearGradient><linearGradient id="k" x1="118.245" y1="64.943" x2="110.797" y2="61.803" gradientUnits="userSpaceOnUse"><stop stop-color="#605D5A"/><stop offset="1" stop-color="#797673"/></linearGradient><linearGradient id="l" x1="125.365" y1="61.976" x2="125.365" y2="51.037" gradientUnits="userSpaceOnUse"><stop stop-color="#605D5A"/><stop offset="1" stop-color="#797673"/></linearGradient><linearGradient id="o" x1="124.724" y1="113.557" x2="124.724" y2="69.159" gradientUnits="userSpaceOnUse"><stop stop-color="#C8C6C4"/><stop offset="1" stop-color="#E1DFDD"/></linearGradient><linearGradient id="s" x1="126.128" y1="88.523" x2="126.045" y2="102.313" gradientUnits="userSpaceOnUse"><stop stop-color="#BDBEE3"/><stop offset="1" stop-color="#8E91E4"/></linearGradient><linearGradient id="u" x1="125.63" y1="67.527" x2="126.196" y2="64.624" gradientUnits="userSpaceOnUse"><stop stop-color="#DCB38B"/><stop offset="1" stop-color="#BF8F68"/></linearGradient><linearGradient id="v" x1="121.763" y1="72.244" x2="121.627" y2="72.92" gradientUnits="userSpaceOnUse"><stop stop-color="#DCB38B"/><stop offset="1" stop-color="#BF8F68"/></linearGradient><linearGradient id="x" x1="129.496" y1="68.336" x2="130.07" y2="65.397" gradientUnits="userSpaceOnUse"><stop stop-color="#DCB38B"/><stop offset="1" stop-color="#BF8F68"/></linearGradient><linearGradient id="A" x1="7.067" y1="69.616" x2="6.737" y2="71.746" gradientUnits="userSpaceOnUse"><stop stop-color="#52383E"/><stop offset="1" stop-color="#432A35"/></linearGradient><linearGradient id="B" x1="16.186" y1="67.537" x2="15.857" y2="69.666" gradientUnits="userSpaceOnUse"><stop stop-color="#52383E"/><stop offset="1" stop-color="#432A35"/></linearGradient><linearGradient id="D" x1="12.263" y1="74.828" x2="12.544" y2="76.062" gradientUnits="userSpaceOnUse"><stop stop-color="#ECCDFF"/><stop offset="1" stop-color="#fff"/></linearGradient><linearGradient id="J" x1="166.968" y1="46.453" x2="165.333" y2="51.523" gradientUnits="userSpaceOnUse"><stop stop-color="#B63C6E"/><stop offset="1" stop-color="#D34681"/></linearGradient><linearGradient id="K" x1="167.308" y1="45.499" x2="166.81" y2="47.095" gradientUnits="userSpaceOnUse"><stop stop-color="#ECCDFF"/><stop offset="1" stop-color="#fff"/></linearGradient><radialGradient id="b" cx="0" cy="0" r="1" gradientUnits="userSpaceOnUse" gradientTransform="matrix(7.09824 .07313 -.06465 6.27479 49.29 38.623)"><stop stop-color="#724937"/><stop offset=".769" stop-color="#9B643D"/></radialGradient><radialGradient id="d" cx="0" cy="0" r="1" gradientUnits="userSpaceOnUse" gradientTransform="rotate(174.439 25.241 16.301) scale(5.10563 5.1909)"><stop stop-color="#724937"/><stop offset=".816" stop-color="#9B643D"/></radialGradient><radialGradient id="m" cx="0" cy="0" r="1" gradientUnits="userSpaceOnUse" gradientTransform="matrix(-7.84297 0 0 -6.72269 123.35 33.524)"><stop stop-color="#9B643D"/><stop offset=".19" stop-color="#B68661"/><stop offset=".436" stop-color="#D3AB89"/><stop offset=".662" stop-color="#E8C6A5"/><stop offset=".857" stop-color="#F5D6B7"/><stop offset="1" stop-color="#FADCBD"/></radialGradient><radialGradient id="n" cx="0" cy="0" r="1" gradientUnits="userSpaceOnUse" gradientTransform="matrix(4.67904 .98405 -.79654 3.78746 123.5 29.865)"><stop offset=".007" stop-color="#AF4E3D"/><stop offset="1" stop-color="#FADCBD" stop-opacity="0"/></radialGradient><radialGradient id="p" cx="0" cy="0" r="1" gradientUnits="userSpaceOnUse" gradientTransform="matrix(-6.37591 0 0 -6.31612 52.493 82.341)"><stop stop-color="#9A6642"/><stop offset="1" stop-color="#BD8F6B"/></radialGradient><radialGradient id="q" cx="0" cy="0" r="1" gradientUnits="userSpaceOnUse" gradientTransform="matrix(-3.82979 .73861 -.73219 -3.79648 54.729 77.276)"><stop stop-color="#9B653E"/><stop offset=".345" stop-color="#AD7A53"/><stop offset=".708" stop-color="#BA8A63"/><stop offset="1" stop-color="#BF8F68"/></radialGradient><radialGradient id="t" cx="0" cy="0" r="1" gradientUnits="userSpaceOnUse" gradientTransform="matrix(14.7186 0 0 16.2981 119.09 74.056)"><stop stop-color="#925B38"/><stop offset=".295" stop-color="#B1805B"/><stop offset=".575" stop-color="#C79C75"/><stop offset=".819" stop-color="#D7AE85"/><stop offset="1" stop-color="#DCB38B"/></radialGradient><radialGradient id="w" cx="0" cy="0" r="1" gradientUnits="userSpaceOnUse" gradientTransform="matrix(5.7608 .95946 -.85703 5.14579 120.045 74.552)"><stop stop-color="#9B653E"/><stop offset="1" stop-color="#BF8F68" stop-opacity="0"/></radialGradient><radialGradient id="y" cx="0" cy="0" r="1" gradientUnits="userSpaceOnUse" gradientTransform="rotate(119.995 -10.03 39.118) scale(31.597 31.816)"><stop stop-color="#FFF478"/><stop offset=".475" stop-color="#FFB02E"/><stop offset="1" stop-color="#F70A8D"/></radialGradient><radialGradient id="z" cx="0" cy="0" r="1" gradientUnits="userSpaceOnUse" gradientTransform="rotate(76.804 -39.596 43.29) scale(15.0735 15.1683)"><stop offset=".824" stop-color="#F59639" stop-opacity="0"/><stop offset="1" stop-color="#FF63C4"/></radialGradient><radialGradient id="C" cx="0" cy="0" r="1" gradientUnits="userSpaceOnUse" gradientTransform="rotate(-103.196 40.422 36.229) scale(9.27417 18.6642)"><stop stop-color="#F70A8D"/><stop offset="1" stop-color="#89029C"/></radialGradient><radialGradient id="E" cx="0" cy="0" r="1" gradientUnits="userSpaceOnUse" gradientTransform="matrix(2.82718 -2.80481 1.82618 1.84074 2.923 79.935)"><stop stop-color="#6D4534"/><stop offset="1" stop-color="#FF822D" stop-opacity="0"/></radialGradient><radialGradient id="F" cx="0" cy="0" r="1" gradientUnits="userSpaceOnUse" gradientTransform="matrix(4.29729 1.614 -1.03896 2.76626 20.207 73.494)"><stop stop-color="#6D4534"/><stop offset="1" stop-color="#FF822D" stop-opacity="0"/></radialGradient><radialGradient id="G" cx="0" cy="0" r="1" gradientUnits="userSpaceOnUse" gradientTransform="rotate(134.76 -13.01 38.89) scale(5.5039 2.51379)"><stop stop-color="#508FFF"/><stop offset="1" stop-color="#3D5BF1"/></radialGradient><radialGradient id="H" cx="0" cy="0" r="1" gradientUnits="userSpaceOnUse" gradientTransform="rotate(36.183 -99.76 69.405) scale(3.90711 1.76921)"><stop stop-color="#5092FF"/><stop offset="1" stop-color="#3F5FFF"/></radialGradient><radialGradient id="I" cx="0" cy="0" r="1" gradientUnits="userSpaceOnUse" gradientTransform="rotate(150.954 82.431 44.081) scale(28.8585 28.6635)"><stop stop-color="#FEF27C"/><stop offset=".475" stop-color="#FBAF2F"/><stop offset="1" stop-color="#ED1C8C"/></radialGradient><radialGradient id="M" cx="0" cy="0" r="1" gradientUnits="userSpaceOnUse" gradientTransform="rotate(102.152 51.374 101.366) scale(18.0507 20.1431)"><stop offset=".019" stop-color="#FF365B"/><stop offset=".477" stop-color="#FF3B79"/><stop offset="1" stop-color="#FF75D3"/></radialGradient><filter id="g" x="78.771" y=".376" width="91.905" height="63.594" filterUnits="userSpaceOnUse" color-interpolation-filters="sRGB"><feFlood flood-opacity="0" result="BackgroundImageFix"/><feColorMatrix in="SourceAlpha" values="0 0 0 0 0 0 0 0 0 0 0 0 0 0 0 0 0 0 127 0" result="hardAlpha"/><feOffset dy="1.2"/><feGaussianBlur stdDeviation="4"/><feColorMatrix values="0 0 0 0 0 0 0 0 0 0 0 0 0 0 0 0 0 0 0.08 0"/><feBlend in2="BackgroundImageFix" result="effect1_dropShadow_406_66218"/><feColorMatrix in="SourceAlpha" values="0 0 0 0 0 0 0 0 0 0 0 0 0 0 0 0 0 0 127 0" result="hardAlpha"/><feOffset dy=".4"/><feGaussianBlur stdDeviation="1"/><feColorMatrix values="0 0 0 0 0 0 0 0 0 0 0 0 0 0 0 0 0 0 0.12 0"/><feBlend in2="effect1_dropShadow_406_66218" result="effect2_dropShadow_406_66218"/><feBlend in="SourceGraphic" in2="effect2_dropShadow_406_66218" result="shape"/></filter><filter id="r" x="94.184" y="81.723" width="63.888" height="29.791" filterUnits="userSpaceOnUse" color-interpolation-filters="sRGB"><feFlood flood-opacity="0" result="BackgroundImageFix"/><feColorMatrix in="SourceAlpha" values="0 0 0 0 0 0 0 0 0 0 0 0 0 0 0 0 0 0 127 0" result="hardAlpha"/><feOffset dy="1.2"/><feGaussianBlur stdDeviation="4"/><feColorMatrix values="0 0 0 0 0 0 0 0 0 0 0 0 0 0 0 0 0 0 0.08 0"/><feBlend in2="BackgroundImageFix" result="effect1_dropShadow_406_66218"/><feColorMatrix in="SourceAlpha" values="0 0 0 0 0 0 0 0 0 0 0 0 0 0 0 0 0 0 127 0" result="hardAlpha"/><feOffset dy=".4"/><feGaussianBlur stdDeviation="1"/><feColorMatrix values="0 0 0 0 0 0 0 0 0 0 0 0 0 0 0 0 0 0 0.12 0"/><feBlend in2="effect1_dropShadow_406_66218" result="effect2_dropShadow_406_66218"/><feBlend in="SourceGraphic" in2="effect2_dropShadow_406_66218" result="shape"/></filter><filter id="L" x="149.622" y="66.026" width="24.992" height="21.988" filterUnits="userSpaceOnUse" color-interpolation-filters="sRGB"><feFlood flood-opacity="0" result="BackgroundImageFix"/><feBlend in="SourceGraphic" in2="BackgroundImageFix" result="shape"/><feColorMatrix in="SourceAlpha" values="0 0 0 0 0 0 0 0 0 0 0 0 0 0 0 0 0 0 127 0" result="hardAlpha"/><feOffset dx="1.979" dy=".66"/><feGaussianBlur stdDeviation="1.979"/><feComposite in2="hardAlpha" operator="arithmetic" k2="-1" k3="1"/><feColorMatrix values="0 0 0 0 0 0 0 0 0 0 0 0 0 0 0 0 0 0 0.28 0"/><feBlend in2="shape" result="effect1_innerShadow_406_66218"/></filter><filter id="N" x="153.747" y="64.969" width="9.795" height="15.315" filterUnits="userSpaceOnUse" color-interpolation-filters="sRGB"><feFlood flood-opacity="0" result="BackgroundImageFix"/><feBlend in="SourceGraphic" in2="BackgroundImageFix" result="shape"/><feGaussianBlur stdDeviation="1.32" result="effect1_foregroundBlur_406_66218"/></filter><filter id="O" x="164.47" y="68.561" width="9.436" height="9.469" filterUnits="userSpaceOnUse" color-interpolation-filters="sRGB"><feFlood flood-opacity="0" result="BackgroundImageFix"/><feBlend in="SourceGraphic" in2="BackgroundImageFix" result="shape"/><feGaussianBlur stdDeviation="1.32" result="effect1_foregroundBlur_406_66218"/></filter><filter id="P" x="158.801" y="68.037" width="11.759" height="12.759" filterUnits="userSpaceOnUse" color-interpolation-filters="sRGB"><feFlood flood-opacity="0" result="BackgroundImageFix"/><feBlend in="SourceGraphic" in2="BackgroundImageFix" result="shape"/><feGaussianBlur stdDeviation=".99" result="effect1_foregroundBlur_406_66218"/></filter><filter id="Q" x="154.036" y="79.249" width="10.463" height="7.924" filterUnits="userSpaceOnUse" color-interpolation-filters="sRGB"><feFlood flood-opacity="0" result="BackgroundImageFix"/><feBlend in="SourceGraphic" in2="BackgroundImageFix" result="shape"/><feGaussianBlur stdDeviation=".99" result="effect1_foregroundBlur_406_66218"/></filter></defs></svg>